<svg xmlns="http://www.w3.org/2000/svg" xmlns:xlink="http://www.w3.org/1999/xlink" version="1.1" x="0px" y="0px" viewBox="0 0 10 12.5" enable-background="new 0 0 10 10" xml:space="preserve"><g><path d="M7.43,6.253c0.004-0.004,0.004-0.008,0.006-0.012C7.627,5.868,7.734,5.446,7.734,5c0-0.657-0.232-1.261-0.619-1.733   C7.113,3.265,7.111,3.263,7.111,3.261c-0.236-0.284-0.527-0.52-0.855-0.69C6.254,2.569,6.25,2.568,6.248,2.567   C5.873,2.374,5.449,2.265,5,2.265c-0.656,0-1.26,0.232-1.732,0.62C3.266,2.886,3.264,2.889,3.262,2.89   C2.977,3.124,2.742,3.415,2.57,3.744c0,0.003-0.002,0.005-0.004,0.008C2.375,4.126,2.266,4.55,2.266,5   c0,0.657,0.232,1.26,0.619,1.732c0.002,0.003,0.004,0.005,0.006,0.007c0.234,0.284,0.525,0.519,0.854,0.689   C3.746,7.431,3.75,7.431,3.752,7.432C4.055,7.589,4.391,7.69,4.748,7.723l0,0H4.75C4.832,7.73,4.916,7.735,5,7.735   c0.293,0,0.574-0.047,0.838-0.133c0.002,0,0.002,0,0.002,0C6.531,7.379,7.102,6.889,7.43,6.253z M5,7.593   c0.049-0.057,0.066-0.11,0.068-0.114C5.08,7.44,5.059,7.4,5.021,7.389s-0.078,0.009-0.09,0.047c0,0.001-0.039,0.119-0.188,0.145   c-0.246-0.024-0.48-0.083-0.701-0.171c0.064-0.034,0.102-0.077,0.105-0.081c0.023-0.03,0.02-0.074-0.01-0.1   c-0.031-0.024-0.074-0.021-0.1,0.009C4.035,7.241,3.955,7.332,3.813,7.304C3.574,7.181,3.357,7.021,3.168,6.833   C3.24,6.827,3.291,6.802,3.295,6.8C3.33,6.782,3.344,6.739,3.326,6.704c-0.02-0.035-0.061-0.048-0.096-0.03   C3.229,6.675,3.119,6.729,2.998,6.646C2.844,6.459,2.717,6.251,2.619,6.026C2.666,6.041,2.707,6.045,2.73,6.045   c0.012,0,0.02-0.001,0.021-0.001C2.789,6.04,2.818,6.006,2.814,5.967S2.775,5.899,2.738,5.902c-0.006,0-0.129,0.008-0.209-0.114   C2.449,5.539,2.406,5.274,2.406,5V4.999c0.057,0.049,0.111,0.067,0.115,0.068C2.529,5.069,2.535,5.07,2.543,5.07   c0.029,0,0.059-0.019,0.068-0.049c0.012-0.038-0.01-0.077-0.047-0.09c-0.002,0-0.119-0.04-0.145-0.188   c0.023-0.245,0.082-0.48,0.17-0.701c0.035,0.065,0.078,0.102,0.082,0.104c0.014,0.011,0.029,0.017,0.045,0.017   c0.02,0,0.041-0.009,0.055-0.026c0.025-0.03,0.02-0.075-0.01-0.1C2.76,4.037,2.666,3.957,2.695,3.813   c0.123-0.238,0.283-0.456,0.471-0.646c0.006,0.074,0.031,0.124,0.033,0.128c0.014,0.024,0.037,0.038,0.063,0.038   c0.012,0,0.021-0.002,0.033-0.008C3.33,3.308,3.344,3.265,3.326,3.23C3.324,3.226,3.271,3.116,3.354,2.997   c0.188-0.153,0.395-0.281,0.619-0.378C3.951,2.69,3.955,2.746,3.955,2.751C3.959,2.787,3.99,2.814,4.027,2.814   c0.002,0,0.004,0,0.006,0C4.072,2.811,4.1,2.776,4.098,2.737c0-0.006-0.008-0.128,0.115-0.208C4.461,2.45,4.725,2.406,5,2.406l0,0   c-0.049,0.057-0.066,0.11-0.068,0.115C4.92,2.559,4.941,2.599,4.979,2.61C4.986,2.612,4.992,2.613,5,2.613   c0.031,0,0.059-0.019,0.068-0.049c0-0.002,0.039-0.12,0.188-0.146C5.5,2.443,5.736,2.502,5.957,2.59   C5.891,2.625,5.855,2.668,5.852,2.671c-0.025,0.03-0.02,0.075,0.01,0.101c0.014,0.011,0.029,0.016,0.045,0.016   c0.021,0,0.041-0.009,0.057-0.025c0-0.002,0.08-0.096,0.225-0.066c0.238,0.123,0.457,0.282,0.645,0.471   C6.758,3.172,6.709,3.197,6.705,3.199C6.67,3.217,6.656,3.259,6.674,3.294S6.734,3.343,6.77,3.325   c0.004-0.002,0.115-0.053,0.232,0.028C7.156,3.54,7.283,3.748,7.381,3.973C7.309,3.95,7.254,3.955,7.248,3.955   C7.209,3.959,7.182,3.994,7.186,4.033s0.039,0.067,0.078,0.063c0,0,0.125-0.011,0.207,0.115C7.551,4.461,7.594,4.726,7.594,5l0,0   C7.537,4.951,7.482,4.934,7.479,4.932C7.441,4.92,7.402,4.94,7.391,4.978c-0.014,0.037,0.008,0.077,0.045,0.09   C7.439,5.069,7.557,5.11,7.58,5.255C7.557,5.501,7.498,5.736,7.41,5.956C7.375,5.891,7.332,5.854,7.328,5.852   c-0.029-0.024-0.074-0.021-0.1,0.01c-0.023,0.03-0.02,0.074,0.01,0.1c0.004,0.004,0.094,0.084,0.066,0.226   C7.182,6.426,7.021,6.644,6.834,6.832C6.828,6.759,6.803,6.708,6.801,6.704c-0.018-0.035-0.063-0.048-0.096-0.03   C6.67,6.692,6.656,6.735,6.674,6.77c0.002,0.001,0.055,0.112-0.027,0.233C6.459,7.155,6.252,7.283,6.027,7.38   c0.021-0.07,0.018-0.127,0.018-0.132C6.041,7.209,6.006,7.182,5.967,7.185C5.928,7.188,5.898,7.224,5.902,7.263   c0,0.001,0.012,0.126-0.115,0.208C5.539,7.55,5.275,7.593,5,7.593L5,7.593z"/><path d="M6.936,5c0-1.068-0.867-1.937-1.936-1.937S3.064,3.932,3.064,5c0,1.067,0.867,1.936,1.936,1.936S6.936,6.067,6.936,5z    M5,6.794C4.012,6.794,3.205,5.989,3.205,5S4.012,3.206,5,3.206c0.99,0,1.795,0.805,1.795,1.794S5.99,6.794,5,6.794z"/><path d="M5,3.508C4.178,3.508,3.508,4.177,3.508,5c0,0.822,0.67,1.492,1.492,1.492S6.492,5.822,6.492,5   C6.492,4.177,5.822,3.508,5,3.508z M5,6.35C4.256,6.35,3.65,5.744,3.65,5c0-0.745,0.605-1.351,1.35-1.351S6.35,4.255,6.35,5   C6.35,5.744,5.744,6.35,5,6.35z"/><path d="M5.42,5c0-0.232-0.188-0.421-0.42-0.421S4.58,4.768,4.58,5c0,0.231,0.188,0.42,0.42,0.42S5.42,5.231,5.42,5z M5,5.278   C4.848,5.278,4.723,5.153,4.723,5S4.848,4.722,5,4.722c0.154,0,0.279,0.125,0.279,0.278S5.154,5.278,5,5.278z"/><path d="M5,4.391c0.158,0,0.285-0.128,0.285-0.285S5.158,3.82,5,3.82c-0.156,0-0.285,0.128-0.285,0.285S4.844,4.391,5,4.391z    M5,3.962c0.08,0,0.143,0.064,0.143,0.144S5.08,4.249,5,4.249c-0.078,0-0.143-0.064-0.143-0.144S4.922,3.962,5,3.962z"/><path d="M6.135,4.679C6.1,4.556,5.988,4.471,5.861,4.471c-0.027,0-0.053,0.004-0.078,0.011C5.709,4.502,5.648,4.55,5.611,4.617   C5.574,4.684,5.564,4.76,5.586,4.834c0.035,0.122,0.146,0.207,0.273,0.207c0.027,0,0.053-0.003,0.078-0.011   C6.09,4.988,6.178,4.83,6.135,4.679z M5.9,4.895c-0.076,0.021-0.156-0.025-0.178-0.1C5.713,4.759,5.717,4.72,5.734,4.687   c0.02-0.034,0.051-0.058,0.088-0.068c0.012-0.004,0.025-0.006,0.039-0.006c0.063,0,0.119,0.043,0.137,0.104   C6.02,4.793,5.975,4.872,5.9,4.895z"/><path d="M5.537,5.429c-0.063,0-0.121,0.021-0.172,0.058C5.24,5.581,5.215,5.76,5.309,5.886C5.363,5.957,5.447,6,5.537,6   C5.6,6,5.658,5.98,5.709,5.942C5.77,5.896,5.809,5.83,5.82,5.755c0.01-0.076-0.01-0.151-0.055-0.212   C5.711,5.471,5.627,5.429,5.537,5.429z M5.68,5.734C5.674,5.772,5.654,5.806,5.623,5.829C5.598,5.848,5.568,5.858,5.537,5.858   c-0.045,0-0.088-0.021-0.115-0.058C5.375,5.737,5.389,5.647,5.451,5.6c0.025-0.019,0.055-0.028,0.086-0.028   c0.045,0,0.088,0.021,0.115,0.057C5.676,5.659,5.686,5.696,5.68,5.734z"/><path d="M4.639,5.489C4.59,5.453,4.531,5.435,4.471,5.435c-0.092,0-0.178,0.043-0.23,0.116C4.195,5.611,4.176,5.688,4.188,5.763   s0.051,0.142,0.113,0.187C4.35,5.985,4.408,6.005,4.469,6.005c0.092,0,0.178-0.043,0.23-0.116c0.045-0.061,0.064-0.137,0.053-0.212   S4.701,5.535,4.639,5.489z M4.586,5.805c-0.047,0.062-0.139,0.076-0.201,0.03C4.354,5.813,4.334,5.779,4.328,5.741   s0.004-0.076,0.025-0.106c0.027-0.037,0.07-0.059,0.117-0.059c0.029,0,0.059,0.01,0.084,0.028C4.586,5.627,4.605,5.66,4.611,5.698   S4.607,5.773,4.586,5.805z"/><path d="M4.414,4.835c0.043-0.151-0.047-0.31-0.197-0.353C4.191,4.476,4.166,4.472,4.139,4.472c-0.127,0-0.24,0.086-0.273,0.209   c-0.021,0.073-0.012,0.15,0.025,0.217s0.098,0.114,0.172,0.135c0.025,0.007,0.051,0.011,0.076,0.011   C4.266,5.043,4.379,4.958,4.414,4.835z M4.277,4.797C4.256,4.87,4.176,4.916,4.1,4.896C4.064,4.885,4.033,4.861,4.014,4.828   C3.996,4.794,3.99,4.756,4.002,4.719c0.016-0.062,0.072-0.104,0.137-0.104c0.014,0,0.027,0.002,0.039,0.006   C4.254,4.641,4.299,4.721,4.277,4.797z"/></g><text x="0" y="25" fill="#000000" font-size="5px" font-weight="bold" font-family="'Helvetica Neue', Helvetica, Arial-Unicode, Arial, Sans-serif">Created by verry poernomo</text><text x="0" y="30" fill="#000000" font-size="5px" font-weight="bold" font-family="'Helvetica Neue', Helvetica, Arial-Unicode, Arial, Sans-serif">from the Noun Project</text></svg>